# xmcd CD database file
# Copyright (C) 1997 Ti Kan
# 
# Track frame offsets:
#     183
#     17885
#     34860
#     50178
#     71803
#     86403
#     100810
#     113153
#     125785
#     142970
# 
# Disc length: 2133 seconds
# 
# Revision: 1
# Processed by: cddbd v1.4b41PL1 Copyright (c) Steve Scherf et al.
# Submitted via: DiscPlay 4.0.2
# 
DISCID=8f08530a
DTITLE=Western Flyer - Westen Flyer
DYEAR=1900
DGENRE=
TTITLE0=Western Flyer
TTITLE1=She Should've Been Mine
TTITLE2=His Memory
TTITLE3=Cherokee Highway
TTITLE4=I Would Give Anything
TTITLE5=Friday Night Stampede
TTITLE6=Liar's Moon
TTITLE7=A Hundred Others Like It
TTITLE8=The One Who Understands
TTITLE9=Pathway To The Moon
EXTD=
EXTT0=
EXTT1=
EXTT2=
EXTT3=
EXTT4=
EXTT5=
EXTT6=
EXTT7=
EXTT8=
EXTT9=
PLAYORDER=
